<mxfile host="www.draw.io" modified="2019-10-21T03:04:30.652Z" agent="Mozilla/5.0 (Windows NT 10.0; Win64; x64) AppleWebKit/537.36 (KHTML, like Gecko) Chrome/75.0.3770.100 Safari/537.36" etag="j2Yt3XPUPnK0mAesUxu-" version="12.1.3" type="github" pages="1">
  <diagram id="ubA2gV7Gt1cGP0GErZQh" name="数据流图">
    <mxGraphModel dx="1248" dy="713" grid="1" gridSize="10" guides="1" tooltips="1" connect="1" arrows="1" fold="1" page="1" pageScale="1" pageWidth="827" pageHeight="1169" math="0" shadow="0">
      <root>
        <mxCell id="0"/>
        <mxCell id="1" parent="0"/>
        <mxCell id="rPMLSju1ZsLJiRAd3JM2-3" value="数据" style="edgeStyle=orthogonalEdgeStyle;rounded=0;orthogonalLoop=1;jettySize=auto;html=1;" edge="1" parent="1" source="rPMLSju1ZsLJiRAd3JM2-1">
          <mxGeometry relative="1" as="geometry">
            <mxPoint x="270" y="90" as="targetPoint"/>
          </mxGeometry>
        </mxCell>
        <mxCell id="rPMLSju1ZsLJiRAd3JM2-1" value="海关数据库&lt;br&gt;管理员" style="rounded=0;whiteSpace=wrap;html=1;" vertex="1" parent="1">
          <mxGeometry x="70" y="60" width="120" height="60" as="geometry"/>
        </mxCell>
        <mxCell id="rPMLSju1ZsLJiRAd3JM2-16" style="edgeStyle=orthogonalEdgeStyle;rounded=0;orthogonalLoop=1;jettySize=auto;html=1;curved=1;" edge="1" parent="1" source="rPMLSju1ZsLJiRAd3JM2-4">
          <mxGeometry relative="1" as="geometry">
            <mxPoint x="350" y="220" as="targetPoint"/>
            <Array as="points">
              <mxPoint x="300" y="220"/>
            </Array>
          </mxGeometry>
        </mxCell>
        <mxCell id="rPMLSju1ZsLJiRAd3JM2-4" value="迁移&lt;br&gt;数据" style="rounded=1;whiteSpace=wrap;html=1;rotation=1;arcSize=14;" vertex="1" parent="1">
          <mxGeometry x="270" y="30" width="60" height="120" as="geometry"/>
        </mxCell>
        <mxCell id="rPMLSju1ZsLJiRAd3JM2-6" value="" style="endArrow=none;html=1;entryX=1;entryY=0.25;entryDx=0;entryDy=0;exitX=0;exitY=0.25;exitDx=0;exitDy=0;" edge="1" parent="1" source="rPMLSju1ZsLJiRAd3JM2-4" target="rPMLSju1ZsLJiRAd3JM2-4">
          <mxGeometry width="50" height="50" relative="1" as="geometry">
            <mxPoint x="470" y="171" as="sourcePoint"/>
            <mxPoint x="440" y="120" as="targetPoint"/>
          </mxGeometry>
        </mxCell>
        <mxCell id="rPMLSju1ZsLJiRAd3JM2-7" value="1.1" style="text;html=1;strokeColor=none;fillColor=none;align=center;verticalAlign=middle;whiteSpace=wrap;rounded=0;" vertex="1" parent="1">
          <mxGeometry x="279" y="35" width="40" height="20" as="geometry"/>
        </mxCell>
        <mxCell id="rPMLSju1ZsLJiRAd3JM2-12" value="" style="group" vertex="1" connectable="0" parent="1">
          <mxGeometry x="351" y="200" width="120" height="40" as="geometry"/>
        </mxCell>
        <mxCell id="rPMLSju1ZsLJiRAd3JM2-8" value="" style="endArrow=none;html=1;" edge="1" parent="rPMLSju1ZsLJiRAd3JM2-12">
          <mxGeometry width="50" height="50" relative="1" as="geometry">
            <mxPoint as="sourcePoint"/>
            <mxPoint x="120" as="targetPoint"/>
          </mxGeometry>
        </mxCell>
        <mxCell id="rPMLSju1ZsLJiRAd3JM2-9" value="" style="endArrow=none;html=1;" edge="1" parent="rPMLSju1ZsLJiRAd3JM2-12">
          <mxGeometry width="50" height="50" relative="1" as="geometry">
            <mxPoint y="40" as="sourcePoint"/>
            <mxPoint x="120" y="40" as="targetPoint"/>
          </mxGeometry>
        </mxCell>
        <mxCell id="rPMLSju1ZsLJiRAd3JM2-10" value="" style="endArrow=none;html=1;" edge="1" parent="rPMLSju1ZsLJiRAd3JM2-12">
          <mxGeometry width="50" height="50" relative="1" as="geometry">
            <mxPoint y="40" as="sourcePoint"/>
            <mxPoint as="targetPoint"/>
          </mxGeometry>
        </mxCell>
        <mxCell id="rPMLSju1ZsLJiRAd3JM2-11" value="" style="endArrow=none;html=1;" edge="1" parent="rPMLSju1ZsLJiRAd3JM2-12">
          <mxGeometry width="50" height="50" relative="1" as="geometry">
            <mxPoint x="40" y="40" as="sourcePoint"/>
            <mxPoint x="40" as="targetPoint"/>
          </mxGeometry>
        </mxCell>
        <mxCell id="rPMLSju1ZsLJiRAd3JM2-15" value="临时表" style="text;html=1;resizable=0;points=[];autosize=1;align=left;verticalAlign=top;spacingTop=-4;" vertex="1" parent="rPMLSju1ZsLJiRAd3JM2-12">
          <mxGeometry x="60" y="10" width="50" height="20" as="geometry"/>
        </mxCell>
        <mxCell id="rPMLSju1ZsLJiRAd3JM2-14" value="D1" style="text;html=1;resizable=0;points=[];autosize=1;align=left;verticalAlign=top;spacingTop=-4;" vertex="1" parent="rPMLSju1ZsLJiRAd3JM2-12">
          <mxGeometry x="10" y="10" width="30" height="20" as="geometry"/>
        </mxCell>
      </root>
    </mxGraphModel>
  </diagram>
</mxfile>
